<svg width="69" height="37.98" viewBox="0 0 69 37.98" xmlns="http://www.w3.org/2000/svg"><g id="svgGroup" stroke-linecap="round" fill-rule="evenodd" font-size="9pt" stroke="#00000000" stroke-width="0.25mm" fill="#569daa" style="stroke:#00000000;stroke-width:0.25mm;fill:#569daa"><path d="M 21.42 36.96 A 2.253 2.253 0 0 0 21.487 36.981 Q 22.018 37.14 22.92 37.14 Q 23.88 37.14 24.78 36.87 Q 25.68 36.6 25.68 35.94 A 0.934 0.934 0 0 1 25.667 35.931 Q 25.532 35.838 25.287 35.603 A 11.351 11.351 0 0 1 25.11 35.43 Q 24.827 35.147 24.749 34.594 A 3.28 3.28 0 0 1 24.72 34.14 Q 24.72 31.56 25.56 27.99 A 39.17 39.17 0 0 1 26.304 25.279 A 47.157 47.157 0 0 1 28.05 20.61 Q 29.7 16.8 32.1 13.62 A 2.024 2.024 0 0 0 32.221 13.371 A 1.574 1.574 0 0 0 32.34 12.78 A 1.345 1.345 0 0 0 31.94 11.817 A 2.178 2.178 0 0 0 31.53 11.49 Q 31.049 11.187 30.42 10.937 A 10.537 10.537 0 0 0 29.49 10.62 Q 28.26 10.26 27.06 10.05 A 434.261 434.261 0 0 0 26.524 9.957 Q 25.691 9.812 25.14 9.72 Q 23.04 14.1 21.06 18.36 Q 19.08 22.62 17.19 26.1 A 46.171 46.171 0 0 1 16.289 27.686 Q 15.566 28.901 14.851 29.911 A 22.319 22.319 0 0 1 13.47 31.68 A 9.447 9.447 0 0 1 12.759 32.416 Q 11.269 33.792 9.72 33.84 A 2.541 2.541 0 0 1 9.283 33.804 A 1.674 1.674 0 0 1 8.07 32.97 A 3.122 3.122 0 0 1 7.799 32.36 Q 7.675 31.978 7.615 31.517 A 7.159 7.159 0 0 1 7.56 30.6 A 12.459 12.459 0 0 1 7.61 29.514 Q 7.771 27.669 8.46 25.35 Q 9.36 22.32 10.68 19.56 Q 11.7 17.58 13.35 14.88 Q 15 12.18 17.1 9.63 Q 19.2 7.08 21.63 5.37 A 10.607 10.607 0 0 1 23.177 4.459 A 7.854 7.854 0 0 1 26.58 3.66 Q 27.54 3.66 28.62 3.87 A 6.879 6.879 0 0 1 29.392 4.066 A 5.386 5.386 0 0 1 30.51 4.56 A 2.476 2.476 0 0 1 30.702 4.686 A 1.733 1.733 0 0 1 31.44 5.88 Q 31.56 6.24 31.86 6.24 A 0.875 0.875 0 0 0 32.186 6.174 Q 32.328 6.118 32.472 6.013 A 2.161 2.161 0 0 0 32.73 5.79 A 1.334 1.334 0 0 0 32.979 5.442 Q 33.088 5.224 33.138 4.947 A 2.869 2.869 0 0 0 33.18 4.44 Q 33.18 3.78 32.94 3.24 Q 32.34 1.68 30.81 0.84 Q 29.782 0.276 28.253 0.091 A 13.45 13.45 0 0 0 26.64 0 Q 22.26 0 18.66 1.53 Q 15.06 3.06 12.15 5.7 Q 9.24 8.34 7.02 11.58 Q 4.8 14.82 3.24 18.3 A 54.018 54.018 0 0 0 2.245 20.664 A 44.676 44.676 0 0 0 0.78 25.02 A 19.657 19.657 0 0 0 0.394 26.497 A 16.329 16.329 0 0 0 0 30 A 11.392 11.392 0 0 0 0.001 30.146 Q 0.015 31.233 0.237 32.163 A 6.226 6.226 0 0 0 1.62 34.89 Q 2.761 36.179 4.823 36.56 A 10.454 10.454 0 0 0 6.72 36.72 Q 10.44 36.72 13.77 33.9 Q 17.1 31.08 19.38 25.98 A 21.418 21.418 0 0 0 19.293 26.319 Q 19.082 27.165 18.81 28.5 Q 18.48 30.12 18.48 31.8 A 9.552 9.552 0 0 0 18.53 32.787 A 7.808 7.808 0 0 0 19.11 35.07 A 3.077 3.077 0 0 0 20.288 36.485 A 3.765 3.765 0 0 0 21.42 36.96 Z M 33.66 20.4 L 34.8 20.4 A 117.014 117.014 0 0 1 37.179 15.042 A 106.49 106.49 0 0 1 37.53 14.31 A 118.251 118.251 0 0 1 38.729 11.902 Q 39.478 10.442 40.17 9.21 Q 41.303 7.193 41.85 6.271 A 35.888 35.888 0 0 1 41.94 6.12 Q 43.163 4.097 44.415 2.828 A 9.596 9.596 0 0 1 45.48 1.89 A 6.169 6.169 0 0 1 47.452 0.927 Q 48.309 0.673 49.337 0.586 A 13.292 13.292 0 0 1 50.46 0.54 A 17.057 17.057 0 0 1 51.693 0.582 Q 52.329 0.628 52.878 0.725 A 8.66 8.66 0 0 1 53.43 0.84 A 5.263 5.263 0 0 1 53.848 0.959 Q 54.49 1.173 54.625 1.462 A 0.37 0.37 0 0 1 54.66 1.62 A 0.282 0.282 0 0 1 54.628 1.744 Q 54.58 1.842 54.46 1.954 A 1.718 1.718 0 0 1 54.36 2.04 Q 53.46 2.64 52.14 4.44 A 49.583 49.583 0 0 0 51.112 5.9 Q 50.557 6.717 49.96 7.654 A 93.116 93.116 0 0 0 49.23 8.82 A 104.553 104.553 0 0 0 47.219 12.233 A 128.291 128.291 0 0 0 45.99 14.46 Q 44.34 17.52 42.78 20.64 L 49.32 20.76 Q 50.64 17.52 52.11 14.49 A 117.914 117.914 0 0 1 53.362 11.982 Q 53.949 10.843 54.504 9.836 A 68.466 68.466 0 0 1 54.87 9.18 A 404.946 404.946 0 0 1 55.467 8.128 Q 56.207 6.829 56.61 6.151 A 39.1 39.1 0 0 1 56.7 6 A 23.819 23.819 0 0 1 57.835 4.314 Q 58.991 2.757 60.12 1.89 A 5.585 5.585 0 0 1 61.866 1.008 Q 63.165 0.6 64.92 0.6 A 16.559 16.559 0 0 1 66.263 0.652 Q 66.925 0.706 67.506 0.816 A 9.509 9.509 0 0 1 67.77 0.87 A 5.166 5.166 0 0 1 68.188 0.979 Q 68.834 1.179 68.966 1.466 A 0.364 0.364 0 0 1 69 1.62 A 0.282 0.282 0 0 1 68.968 1.744 Q 68.92 1.842 68.8 1.954 A 1.718 1.718 0 0 1 68.7 2.04 Q 67.74 2.76 66.15 5.01 A 62.575 62.575 0 0 0 64.915 6.828 Q 64.25 7.844 63.539 9.001 A 114.888 114.888 0 0 0 62.67 10.44 A 113.613 113.613 0 0 0 59.869 15.446 A 129.529 129.529 0 0 0 58.95 17.22 A 140.641 140.641 0 0 0 55.782 23.865 A 128.414 128.414 0 0 0 55.59 24.3 A 83.681 83.681 0 0 0 54.287 27.424 Q 53.707 28.905 53.256 30.249 A 49.194 49.194 0 0 0 53.13 30.63 Q 52.324 33.1 52.217 34.646 A 6.556 6.556 0 0 0 52.2 35.1 A 3.178 3.178 0 0 0 52.239 35.613 Q 52.318 36.098 52.56 36.42 Q 52.652 36.605 52.674 36.718 A 0.338 0.338 0 0 1 52.68 36.78 A 0.278 0.278 0 0 1 52.638 36.933 Q 52.593 37.004 52.5 37.05 A 0.289 0.289 0 0 1 52.383 37.08 Q 52.237 37.086 52.036 36.97 A 1.401 1.401 0 0 1 52.02 36.96 A 2.345 2.345 0 0 0 51.663 36.797 Q 51.476 36.728 51.251 36.675 A 5.425 5.425 0 0 0 50.88 36.6 A 14.147 14.147 0 0 1 49.666 36.344 A 12.852 12.852 0 0 1 49.5 36.3 A 0.062 0.062 0 0 1 49.473 36.315 Q 49.395 36.339 49.169 36.251 A 2.502 2.502 0 0 1 49.14 36.24 A 3.745 3.745 0 0 1 48.351 35.848 A 3.274 3.274 0 0 1 48 35.58 Q 47.52 35.16 47.22 34.62 A 1471.886 1471.886 0 0 0 46.006 33.505 Q 45.464 33.007 44.86 32.453 A 2901.839 2901.839 0 0 0 43.59 31.29 Q 41.46 29.34 39.48 27.96 Q 38.46 30.54 37.83 32.64 A 21.462 21.462 0 0 0 37.505 33.842 Q 37.232 34.989 37.203 35.811 A 5.421 5.421 0 0 0 37.2 36 Q 37.2 36.96 37.56 37.32 Q 37.652 37.505 37.674 37.618 A 0.338 0.338 0 0 1 37.68 37.68 A 0.278 0.278 0 0 1 37.638 37.833 Q 37.593 37.904 37.5 37.95 A 0.289 0.289 0 0 1 37.383 37.98 Q 37.237 37.986 37.036 37.87 A 1.401 1.401 0 0 1 37.02 37.86 A 4.277 4.277 0 0 0 36.573 37.693 Q 36.165 37.564 35.64 37.47 Q 34.8 37.32 34.14 37.14 Q 32.82 36.66 32.22 35.43 A 5.651 5.651 0 0 1 31.761 34.026 Q 31.638 33.393 31.622 32.669 A 9.827 9.827 0 0 1 31.62 32.46 Q 31.62 30.924 31.998 29.069 A 23.53 23.53 0 0 1 32.01 29.01 A 35.452 35.452 0 0 1 32.674 26.34 A 41.53 41.53 0 0 1 33.06 25.08 Q 32.46 24.84 31.83 24.69 Q 31.2 24.54 30.54 24.42 A 3.432 3.432 0 0 1 29.956 24.228 Q 29.04 23.824 29.04 22.98 Q 29.04 22.14 29.91 21.3 Q 30.78 20.46 32.04 20.34 A 1.881 1.881 0 0 0 32.23 20.331 A 1.473 1.473 0 0 0 32.37 20.31 Q 32.52 20.28 32.7 20.28 Q 32.94 20.28 33.18 20.31 Q 33.42 20.34 33.66 20.4 Z M 41.94 22.32 L 40.86 24.72 Q 42.72 26.58 44.22 28.56 Q 45.645 30.441 46.529 31.781 A 32.221 32.221 0 0 1 46.62 31.92 A 11.866 11.866 0 0 1 46.614 31.549 Q 46.614 29.766 47.13 27.54 Q 47.7 25.08 48.66 22.5 Q 45.3 22.5 41.94 22.32 Z" vector-effect="non-scaling-stroke"/></g></svg>